<?xml version="1.0" encoding="utf-8" standalone="no"?>
<!DOCTYPE svg PUBLIC "-//W3C//DTD SVG 1.1//EN"
  "http://www.w3.org/Graphics/SVG/1.1/DTD/svg11.dtd">
<svg xmlns:xlink="http://www.w3.org/1999/xlink" width="215.680391pt" height="35.67375pt" viewBox="0 0 215.680391 35.67375" xmlns="http://www.w3.org/2000/svg" version="1.1">
 <metadata>
  <rdf:RDF xmlns:dc="http://purl.org/dc/elements/1.1/" xmlns:cc="http://creativecommons.org/ns#" xmlns:rdf="http://www.w3.org/1999/02/22-rdf-syntax-ns#">
   <cc:Work>
    <dc:type rdf:resource="http://purl.org/dc/dcmitype/StillImage"/>
    <dc:date>2025-09-28T14:33:38.175369</dc:date>
    <dc:format>image/svg+xml</dc:format>
    <dc:creator>
     <cc:Agent>
      <dc:title>Matplotlib v3.6.3, https://matplotlib.org/</dc:title>
     </cc:Agent>
    </dc:creator>
   </cc:Work>
  </rdf:RDF>
 </metadata>
 <defs>
  <style type="text/css">*{stroke-linejoin: round; stroke-linecap: butt}</style>
 </defs>
 <g id="figure_1">
  <g id="patch_1">
   <path d="M 0 35.67375 
L 215.680391 35.67375 
L 215.680391 0 
L 0 0 
L 0 35.67375 
z
" style="fill: none"/>
  </g>
  <g id="axes_1">
   <g id="patch_2">
    <path d="M 10.745 23.165625 
Q 11.991875 23.165625 12.630625 22.61875 
Q 13.27375 22.071875 13.27375 21.004375 
Q 13.27375 19.95 12.630625 19.39875 
Q 11.991875 18.843125 10.745 18.843125 
L 7.835625 18.843125 
L 7.835625 23.165625 
L 10.745 23.165625 
z
M 10.924375 32.090625 
Q 12.508125 32.090625 13.30875 31.42125 
Q 14.109375 30.751875 14.109375 29.4 
Q 14.109375 28.07 13.3175 27.409375 
Q 12.525625 26.744375 10.924375 26.744375 
L 7.835625 26.744375 
L 7.835625 32.090625 
L 10.924375 32.090625 
z
M 15.82 24.749375 
Q 17.513125 25.24375 18.440625 26.569375 
Q 19.3725 27.895 19.3725 29.82 
Q 19.3725 32.773125 17.3775 34.225625 
Q 15.3825 35.67375 11.305 35.67375 
L 2.5725 35.67375 
L 2.5725 15.26 
L 10.47375 15.26 
Q 14.72625 15.26 16.63375 16.54625 
Q 18.54125 17.8325 18.54125 20.663125 
Q 18.54125 22.150625 17.84125 23.19625 
Q 17.145625 24.241875 15.82 24.749375 
z
M 30.555547 28.783125 
Q 29.024297 28.783125 28.249922 29.30375 
Q 27.479922 29.82 27.479922 30.835 
Q 27.479922 31.7625 28.101172 32.291875 
Q 28.726797 32.816875 29.833672 32.816875 
Q 31.211797 32.816875 32.156797 31.828125 
Q 33.101797 30.835 33.101797 29.343125 
L 33.101797 28.783125 
L 30.555547 28.783125 
z
M 38.036797 26.936875 
L 38.036797 35.67375 
L 33.101797 35.67375 
L 33.101797 33.403125 
Q 32.117422 34.79875 30.883672 35.4375 
Q 29.654297 36.071875 27.891172 36.071875 
Q 25.511172 36.071875 24.028047 34.685 
Q 22.544922 33.29375 22.544922 31.08 
Q 22.544922 28.385 24.395547 27.129375 
Q 26.250547 25.869375 30.214297 25.869375 
L 33.101797 25.869375 
L 33.101797 25.48875 
Q 33.101797 24.325 32.183047 23.786875 
Q 31.268672 23.244375 29.326172 23.244375 
Q 27.755547 23.244375 26.399297 23.559375 
Q 25.047422 23.874375 23.883672 24.504375 
L 23.883672 20.7725 
Q 25.458672 20.3875 27.042422 20.190625 
Q 28.630547 19.99375 30.214297 19.99375 
Q 34.357422 19.99375 36.194922 21.625625 
Q 38.036797 23.2575 38.036797 26.936875 
z
M 57.981328 26.350625 
L 57.981328 35.67375 
L 53.059453 35.67375 
L 53.059453 34.155625 
L 53.059453 28.538125 
Q 53.059453 26.55625 52.971953 25.80375 
Q 52.884453 25.05125 52.665703 24.696875 
Q 52.376953 24.215625 51.882578 23.94875 
Q 51.392578 23.681875 50.762578 23.681875 
Q 49.231328 23.681875 48.356328 24.8675 
Q 47.481328 26.04875 47.481328 28.14 
L 47.481328 35.67375 
L 42.590078 35.67375 
L 42.590078 20.36125 
L 47.481328 20.36125 
L 47.481328 22.60125 
Q 48.588203 21.2625 49.830703 20.628125 
Q 51.077578 19.99375 52.582578 19.99375 
Q 55.233828 19.99375 56.607578 21.62125 
Q 57.981328 23.244375 57.981328 26.350625 
z
M 62.523672 14.398125 
L 67.414922 14.398125 
L 67.414922 25.97875 
L 73.049922 20.36125 
L 78.737422 20.36125 
L 71.256172 27.3875 
L 79.323672 35.67375 
L 73.391172 35.67375 
L 67.414922 29.290625 
L 67.414922 35.67375 
L 62.523672 35.67375 
L 62.523672 14.398125 
z
" clip-path="url(#pdf11f9a27f)" style="fill: #1580f9"/>
   </g>
   <g id="patch_3">
    <path d="M 85.059297 17.530625 
L 85.059297 33.403125 
L 88.397422 33.403125 
Q 92.623672 33.403125 94.583672 31.49125 
Q 96.543672 29.575 96.543672 25.445 
Q 96.543672 21.345625 94.583672 19.438125 
Q 92.623672 17.530625 88.397422 17.530625 
L 85.059297 17.530625 
z
M 82.298672 15.26 
L 87.973047 15.26 
Q 93.905547 15.26 96.679297 17.7275 
Q 99.457422 20.195 99.457422 25.445 
Q 99.457422 30.725625 96.666172 33.201875 
Q 93.879297 35.67375 87.973047 35.67375 
L 82.298672 35.67375 
L 82.298672 15.26 
z
M 116.848594 27.3875 
L 116.848594 28.616875 
L 105.281094 28.616875 
Q 105.447344 31.215625 106.847344 32.57625 
Q 108.247344 33.936875 110.749844 33.936875 
Q 112.197969 33.936875 113.558594 33.5825 
Q 114.919219 33.228125 116.262344 32.515 
L 116.262344 34.895 
Q 114.906094 35.468125 113.484219 35.77 
Q 112.062344 36.071875 110.601094 36.071875 
Q 106.934844 36.071875 104.795469 33.94125 
Q 102.656094 31.80625 102.656094 28.16625 
Q 102.656094 24.408125 104.686094 22.203125 
Q 106.716094 19.99375 110.163594 19.99375 
Q 113.252344 19.99375 115.050469 21.984375 
Q 116.848594 23.970625 116.848594 27.3875 
z
M 114.332969 26.648125 
Q 114.306719 24.5875 113.177969 23.358125 
Q 112.049219 22.124375 110.189844 22.124375 
Q 108.085469 22.124375 106.821094 23.314375 
Q 105.556719 24.504375 105.364219 26.665625 
L 114.332969 26.648125 
z
M 123.465781 16.0125 
L 123.465781 20.36125 
L 128.645781 20.36125 
L 128.645781 22.316875 
L 123.465781 22.316875 
L 123.465781 30.629375 
Q 123.465781 32.501875 123.977656 33.035625 
Q 124.489531 33.569375 126.064531 33.569375 
L 128.645781 33.569375 
L 128.645781 35.67375 
L 126.064531 35.67375 
Q 123.150781 35.67375 122.043906 34.58875 
Q 120.937031 33.499375 120.937031 30.629375 
L 120.937031 22.316875 
L 119.090781 22.316875 
L 119.090781 20.36125 
L 120.937031 20.36125 
L 120.937031 16.0125 
L 123.465781 16.0125 
z
M 145.053672 27.3875 
L 145.053672 28.616875 
L 133.486172 28.616875 
Q 133.652422 31.215625 135.052422 32.57625 
Q 136.452422 33.936875 138.954922 33.936875 
Q 140.403047 33.936875 141.763672 33.5825 
Q 143.124297 33.228125 144.467422 32.515 
L 144.467422 34.895 
Q 143.111172 35.468125 141.689297 35.77 
Q 140.267422 36.071875 138.806172 36.071875 
Q 135.139922 36.071875 133.000547 33.94125 
Q 130.861172 31.80625 130.861172 28.16625 
Q 130.861172 24.408125 132.891172 22.203125 
Q 134.921172 19.99375 138.368672 19.99375 
Q 141.457422 19.99375 143.255547 21.984375 
Q 145.053672 23.970625 145.053672 27.3875 
z
M 142.538047 26.648125 
Q 142.511797 24.5875 141.383047 23.358125 
Q 140.254297 22.124375 138.394922 22.124375 
Q 136.290547 22.124375 135.026172 23.314375 
Q 133.761797 24.504375 133.569297 26.665625 
L 142.538047 26.648125 
z
M 149.085234 14.398125 
L 151.613984 14.398125 
L 151.613984 26.963125 
L 159.121484 20.36125 
L 162.332734 20.36125 
L 154.212734 27.523125 
L 162.678359 35.67375 
L 159.397109 35.67375 
L 151.613984 28.196875 
L 151.613984 35.67375 
L 149.085234 35.67375 
L 149.085234 14.398125 
z
M 167.885703 16.0125 
L 167.885703 20.36125 
L 173.065703 20.36125 
L 173.065703 22.316875 
L 167.885703 22.316875 
L 167.885703 30.629375 
Q 167.885703 32.501875 168.397578 33.035625 
Q 168.909453 33.569375 170.484453 33.569375 
L 173.065703 33.569375 
L 173.065703 35.67375 
L 170.484453 35.67375 
Q 167.570703 35.67375 166.463828 34.58875 
Q 165.356953 33.499375 165.356953 30.629375 
L 165.356953 22.316875 
L 163.510703 22.316875 
L 163.510703 20.36125 
L 165.356953 20.36125 
L 165.356953 16.0125 
L 167.885703 16.0125 
z
M 176.374844 20.36125 
L 178.890469 20.36125 
L 178.890469 35.67375 
L 176.374844 35.67375 
L 176.374844 20.36125 
z
M 176.374844 14.398125 
L 178.890469 14.398125 
L 178.890469 17.5875 
L 176.374844 17.5875 
L 176.374844 14.398125 
z
M 182.351641 20.36125 
L 185.016016 20.36125 
L 189.802266 33.210625 
L 194.588516 20.36125 
L 197.252891 20.36125 
L 191.508516 35.67375 
L 188.091641 35.67375 
L 182.351641 20.36125 
z
" clip-path="url(#pdf11f9a27f)" style="fill: #0f172a"/>
   </g>
  </g>
 </g>
 <defs>
  <clipPath id="pdf11f9a27f">
   <rect x="0" y="0" width="215.680391" height="35.67375"/>
  </clipPath>
 </defs>
</svg>
